name rise43.5482peak65.4966fall89.1036.mot
datacolumns 19
datarows 29
range 2.32499000000000 2.37165600000000
endheader
time	ground_force1_vx	ground_force1_vy	ground_force1_vz	ground_force1_px	ground_force1_py	ground_force1_pz	ground_force2_vx	ground_force2_vy	ground_force2_vz	ground_force2_px	ground_force2_py	ground_force2_pz	ground_torque1_x	ground_torque1_y	ground_torque1_z	ground_torque2_x	ground_torque2_y	ground_torque2_z	
2.32499000000000	-56.09669700000000	809.65053499999999	60.56577500000000	0.05505600000000	0.00000000000000	0.15668400000000	0.00000000000000	0.00000000000000	0.00000000000000	0.00000000000000	0.00000000000000	0.00000000000000	0.00000000000000	23.50380700000000	0.00000000000000	0.00000000000000	0.00000000000000	0.00000000000000	
2.32665600000000	-56.67139600000000	808.74598600000002	60.57375600000000	0.05432600000000	0.00000000000000	0.15659100000000	0.00000000000000	0.00000000000000	0.00000000000000	0.00000000000000	0.00000000000000	0.00000000000000	0.00000000000000	23.53368300000000	0.00000000000000	0.00000000000000	0.00000000000000	0.00000000000000	
2.32832400000000	-57.26184000000000	807.75724100000002	60.56957800000000	0.05359800000000	0.00000000000000	0.15649400000000	-1.73871200000000	3.91931400000000	1.27875100000000	0.00000000000000	0.00000000000000	0.00000000000000	0.00000000000000	23.56689000000000	0.00000000000000	0.00000000000000	0.33326800000000	0.00000000000000	
2.32999000000000	-57.86828300000000	806.68179999999995	60.55269300000000	0.05287000000000	0.00000000000000	0.15639400000000	-2.77107200000000	7.41555700000000	2.17203400000000	0.00000000000000	0.00000000000000	0.00000000000000	0.00000000000000	23.60353200000000	0.00000000000000	0.00000000000000	0.57752000000000	0.00000000000000	
2.33166100000000	-58.49092200000000	805.51707499999998	60.52255000000000	0.05214300000000	0.00000000000000	0.15629000000000	-3.93661100000000	11.62080400000000	3.20894500000000	0.00000000000000	0.00000000000000	0.00000000000000	0.00000000000000	23.64369900000000	0.00000000000000	0.00000000000000	0.86305800000000	0.00000000000000	
2.33331600000000	-59.12988800000000	804.26039200000002	60.47858800000000	0.05141600000000	0.00000000000000	0.15618200000000	-5.19940800000000	16.48499000000000	4.36592400000000	0.00000000000000	0.00000000000000	0.00000000000000	0.00000000000000	23.68746800000000	0.00000000000000	0.00000000000000	1.18396000000000	0.00000000000000	
2.33498900000000	-59.78524800000000	802.90899300000001	60.42024400000000	0.05069000000000	0.00000000000000	0.15607000000000	-6.51474900000000	21.92612600000000	5.61139400000000	0.00000000000000	0.00000000000000	0.00000000000000	0.00000000000000	23.73490000000000	0.00000000000000	0.00000000000000	1.53207900000000	0.00000000000000	
2.33665700000000	-60.45699700000000	801.46003499999995	60.34695300000000	0.04996400000000	0.00000000000000	0.15595500000000	-7.83205400000000	27.83639400000000	6.90785000000000	0.28730400000000	0.00000000000000	-0.03871900000000	0.00000000000000	23.78603800000000	0.00000000000000	0.00000000000000	3.57898000000000	0.00000000000000	
2.33832300000000	-61.14505700000000	799.91059800000005	60.25814800000000	0.04923900000000	0.00000000000000	0.15583500000000	-9.09855900000000	34.09106300000000	8.21464100000000	0.29151300000000	0.00000000000000	-0.03921400000000	0.00000000000000	23.84091100000000	0.00000000000000	0.00000000000000	4.30756300000000	0.00000000000000	
2.33998400000000	-61.84927300000000	798.25768500000004	60.15326300000000	0.04851300000000	0.00000000000000	0.15571200000000	-10.26328400000000	40.55908500000000	9.49108300000000	0.29531300000000	0.00000000000000	-0.03968200000000	0.00000000000000	23.89952600000000	0.00000000000000	0.00000000000000	5.03302000000000	0.00000000000000	
2.34165600000000	-62.56940800000000	796.49822900000004	60.03173700000000	0.04778800000000	0.00000000000000	0.15558500000000	-11.28073400000000	47.11383300000000	10.69947400000000	0.29876200000000	0.00000000000000	-0.04012800000000	0.00000000000000	23.96187500000000	0.00000000000000	0.00000000000000	5.73461200000000	0.00000000000000	
2.34332400000000	-63.30514300000000	794.62909500000001	59.89301200000000	0.04706400000000	0.00000000000000	0.15545400000000	-12.11388400000000	53.64258300000000	11.80762400000000	0.30191000000000	0.00000000000000	-0.04055200000000	0.00000000000000	24.02792600000000	0.00000000000000	0.00000000000000	6.39412000000000	0.00000000000000	
2.34498700000000	-64.05607000000001	792.64709200000004	59.73653900000000	0.04633900000000	0.00000000000000	0.15532000000000	-12.73613400000000	60.05372700000000	12.79064800000000	0.30479800000000	0.00000000000000	-0.04095900000000	0.00000000000000	24.09762800000000	0.00000000000000	0.00000000000000	6.99691100000000	0.00000000000000	
2.34665500000000	-64.82169700000000	790.54897000000005	59.56177900000000	0.04561500000000	0.00000000000000	0.15518100000000	-13.13215400000000	66.28123500000000	13.63191300000000	0.30746100000000	0.00000000000000	-0.04135000000000	0.00000000000000	24.17090700000000	0.00000000000000	0.00000000000000	7.53257300000000	0.00000000000000	
2.34832200000000	-65.60143400000000	788.33143600000005	59.36820300000000	0.04489200000000	0.00000000000000	0.15503900000000	-13.29768900000000	72.28632600000000	14.32316800000000	0.30992600000000	0.00000000000000	-0.04172700000000	0.00000000000000	24.24766800000000	0.00000000000000	0.00000000000000	7.99509400000000	0.00000000000000	
2.34999000000000	-66.39460300000000	785.99115600000005	59.15529900000000	0.04417000000000	0.00000000000000	0.15489200000000	-13.23847300000000	78.05661600000001	14.86396500000000	0.31221800000000	0.00000000000000	-0.04209100000000	0.00000000000000	24.32779100000000	0.00000000000000	0.00000000000000	8.38266600000000	0.00000000000000	
2.35166000000000	-67.20042700000000	783.52476500000000	58.92257100000000	0.04344800000000	0.00000000000000	0.15474200000000	-12.96852400000000	83.60324100000000	15.26053600000000	0.31435800000000	0.00000000000000	-0.04244300000000	0.00000000000000	24.41113100000000	0.00000000000000	0.00000000000000	8.69716200000000	0.00000000000000	
2.35331900000000	-68.01803200000001	780.92887700000006	58.66954200000000	0.04272700000000	0.00000000000000	0.15458800000000	-12.50802700000000	88.95654200000000	15.52432400000000	0.31636300000000	0.00000000000000	-0.04278400000000	0.00000000000000	24.49751900000000	0.00000000000000	0.00000000000000	8.94341300000000	0.00000000000000	
2.35498900000000	-68.84644800000000	778.20009100000004	58.39575800000000	0.04200800000000	0.00000000000000	0.15443000000000	-11.88108600000000	94.16091100000000	15.67032800000000	0.31824600000000	0.00000000000000	-0.04311600000000	0.00000000000000	24.58676000000000	0.00000000000000	0.00000000000000	9.12836200000000	0.00000000000000	
2.35665400000000	-69.68460300000000	775.33500400000003	58.10078800000000	0.04129000000000	0.00000000000000	0.15426900000000	-11.11353100000000	99.26937700000001	15.71545400000000	0.32002200000000	0.00000000000000	-0.04343900000000	0.00000000000000	24.67863300000000	0.00000000000000	0.00000000000000	9.26018600000000	0.00000000000000	
2.35832000000000	-70.53132600000001	772.33021599999995	57.78423000000000	0.04057300000000	0.00000000000000	0.15410400000000	-10.23095800000000	104.33842600000000	15.67699000000000	0.32169900000000	0.00000000000000	-0.04375400000000	0.00000000000000	24.77289000000000	0.00000000000000	0.00000000000000	9.34748600000000	0.00000000000000	
2.35999000000000	-71.38534700000000	769.18234700000005	57.44570900000000	0.03985800000000	0.00000000000000	0.15393500000000	-9.25711500000000	109.42340200000000	15.57131500000000	0.32328800000000	0.00000000000000	-0.04406100000000	0.00000000000000	24.86925800000000	0.00000000000000	0.00000000000000	9.39856700000000	0.00000000000000	
2.36165200000000	-72.24529400000000	765.88804300000004	57.08488400000000	0.03914600000000	0.00000000000000	0.15376200000000	-8.21270400000000	114.57478000000000	15.41289300000000	0.32479600000000	0.00000000000000	-0.04436200000000	0.00000000000000	24.96743300000000	0.00000000000000	0.00000000000000	9.42087300000000	0.00000000000000	
2.36332100000000	-73.10969799999999	762.44398600000000	56.70144800000000	0.03843500000000	0.00000000000000	0.15358600000000	-7.11461700000000	119.83542799999999	15.21359400000000	0.32622900000000	0.00000000000000	-0.04465600000000	0.00000000000000	25.06708700000000	0.00000000000000	0.00000000000000	9.42058800000000	0.00000000000000	
2.36498700000000	-73.97699100000000	758.84691199999997	56.29512900000000	0.03772600000000	0.00000000000000	0.15340600000000	-5.97558500000000	125.23889500000000	14.98232400000000	0.32759300000000	0.00000000000000	-0.04494300000000	0.00000000000000	25.16786500000000	0.00000000000000	0.00000000000000	9.40240200000000	0.00000000000000	
2.36665100000000	-74.84550800000000	755.09361600000000	55.86569700000000	0.03702000000000	0.00000000000000	0.15322300000000	-4.80419800000000	130.80867200000000	14.72494400000000	0.32889300000000	0.00000000000000	-0.04522600000000	0.00000000000000	25.26938400000000	0.00000000000000	0.00000000000000	9.36942800000000	0.00000000000000	
2.36831700000000	-75.71349200000000	751.18096900000000	55.41295900000000	0.03631700000000	0.00000000000000	0.15303700000000	-3.60523200000000	136.55831300000000	14.44442900000000	0.33013100000000	0.00000000000000	-0.04550200000000	0.00000000000000	25.37123500000000	0.00000000000000	0.00000000000000	9.32326300000000	0.00000000000000	
2.36998500000000	-76.57909300000000	747.10592799999995	54.93676900000000	0.03561600000000	0.00000000000000	0.15284700000000	-2.38018200000000	142.49222900000001	14.14121600000000	0.33131200000000	0.00000000000000	-0.04577400000000	0.00000000000000	25.47298300000000	0.00000000000000	0.00000000000000	9.26414200000000	0.00000000000000	
2.37165600000000	-77.44037200000000	742.86555299999998	54.43702300000000	0.03491800000000	0.00000000000000	0.15265400000000	-1.12795600000000	148.60700100000000	13.81367300000000	0.33243700000000	0.00000000000000	-0.04604200000000	0.00000000000000	25.57416900000000	0.00000000000000	0.00000000000000	9.19117700000000	0.00000000000000	
